# xmcd
#
# Track frame offsets: 
#        150
#        9862
#        17734
#        26853
#        34909
#        43156
#        49038
#        56984
#        65487
#        74072
#        82654
#        94152
#        102022
#        110974
#        121229
#        129363
#        141116
#        149219
#        159371
#        171494
#
# Disc length: 2410 seconds
#
# Revision: 0
# Processed by: cddbd v1.5.2PL0 Copyright (c) Steve Scherf et al.
# Submitted via: ExactAudioCopyFreeDBPlugin 1.0
#
DISCID=24096814
DTITLE=Don Rich and The Buckaroos - That Fiddlin' Man
DYEAR=1969
DGENRE=Country
TTITLE0=Orange Blossom Special
TTITLE1=Pretty Girl Hoe Down
TTITLE2=Lousiana Waltz
TTITLE3=Down On The Bayou
TTITLE4=Saturday Night
TTITLE5=Georgia Peach
TTITLE6=Cajun Fiddle
TTITLE7=Dublin Waltz
TTITLE8=Catfish Capers
TTITLE9=Tumwater Breakdown
TTITLE10=A Maiden's Prayer
TTITLE11=Going Home To The Bayou
TTITLE12=Buckersfield Breakdown
TTITLE13=The Way That I Love You
TTITLE14=Bile 'Em Cabbage Down
TTITLE15=Faded Love
TTITLE16=Fishin' Reel
TTITLE17=Kern County Breakdown
TTITLE18=Greensleeves
TTITLE19=Fiddle Polka (Live)
EXTD=
EXTT0=
EXTT1=
EXTT2=
EXTT3=
EXTT4=
EXTT5=
EXTT6=
EXTT7=
EXTT8=
EXTT9=
EXTT10=
EXTT11=
EXTT12=
EXTT13=
EXTT14=
EXTT15=
EXTT16=
EXTT17=
EXTT18=
EXTT19=
PLAYORDER=
